<svg width="60" height="50" viewBox="0 0 60 50" fill="none" xmlns="http://www.w3.org/2000/svg">
<path d="M56.7272 6H59.9999L49.7454 44H46.4727L56.7272 6Z" fill="#71CB1D"/>
<path d="M0.556641 36H1.61133V13.5H0.556641V36ZM2.13867 36H2.66602V13.5H2.13867V36ZM3.7207 36H4.24805V13.5H3.7207V36ZM6.35742 36H6.88477V13.5H6.35742V36ZM8.4668 36H9.52148V13.5H8.4668V36ZM11.1035 36H11.6309V13.5H11.1035V36ZM12.1582 36H12.6855V13.5H12.1582V36ZM13.2129 36H13.7402V13.5H13.2129V36ZM15.2637 36H16.3184V13.5H15.2637V36ZM17.9004 36H18.9551V13.5H17.9004V36ZM20.0098 36H21.0645V13.5H20.0098V36ZM22.1191 36H23.1738V13.5H22.1191V36ZM23.7012 36H24.7559V13.5H23.7012V36ZM26.3379 36H27.9199V13.5H26.3379V36ZM28.4473 36H28.9746V13.5H28.4473V36ZM29.502 36H30.5566V13.5H29.502V36Z" fill="white"/>
</svg>
