<svg width="60" height="50" viewBox="0 0 60 50" fill="none" xmlns="http://www.w3.org/2000/svg">
<path d="M56.7272 6H59.9999L49.7454 44H46.4727L56.7272 6Z" fill="#71CB1D"/>
<path d="M0.556641 34.1339V25H30.4495V34.1339C30.4495 34.8605 30.19 35.4314 29.7229 35.8984C29.204 36.4174 28.6331 36.625 27.9584 36.625H3.04771C2.32115 36.625 1.75028 36.4174 1.2832 35.8984C0.76423 35.4314 0.556641 34.8605 0.556641 34.1339ZM10.5209 30.6049V32.6808C10.5209 32.8884 10.5728 33.0441 10.6766 33.1479C10.7804 33.2517 10.9361 33.3036 11.1437 33.3036H18.2017C18.3574 33.3036 18.5131 33.2517 18.6169 33.1479C18.7207 33.0441 18.8245 32.8884 18.8245 32.6808V30.6049C18.8245 30.4492 18.7207 30.2935 18.6169 30.1897C18.5131 30.0859 18.3574 29.9821 18.2017 29.9821H11.1437C10.9361 29.9821 10.7804 30.0859 10.6766 30.1897C10.5728 30.2935 10.5209 30.4492 10.5209 30.6049ZM3.87807 30.6049V32.6808C3.87807 32.8884 3.92997 33.0441 4.03376 33.1479C4.13756 33.2517 4.29325 33.3036 4.50084 33.3036H8.23744C8.39314 33.3036 8.54883 33.2517 8.65262 33.1479C8.75642 33.0441 8.86021 32.8884 8.86021 32.6808V30.6049C8.86021 30.4492 8.75642 30.2935 8.65262 30.1897C8.54883 30.0859 8.39314 29.9821 8.23744 29.9821H4.50084C4.29325 29.9821 4.13756 30.0859 4.03376 30.1897C3.92997 30.2935 3.87807 30.4492 3.87807 30.6049ZM30.4495 15.8661C30.4495 15.1914 30.19 14.6205 29.7229 14.1016C29.204 13.6345 28.6331 13.375 27.9584 13.375H3.04771C2.32115 13.375 1.75028 13.6345 1.2832 14.1016C0.76423 14.6205 0.556641 15.1914 0.556641 15.8661V18.3571H30.4495V15.8661Z" fill="white"/>
</svg>
