<svg width="30" height="30"  viewBox="0 0 50 51" fill="#71cb1d" xmlns="http://www.w3.org/2000/svg"> <g clip-path="url(#clip0)"> <path d="M42.6775 33.2829C40.1068 30.7259 37.0799 28.7999 33.7748 27.5712C37.4583 24.8813 39.862 20.5422 39.862 15.6495C39.862 7.49147 33.1961 0.860962 25.0056 0.860962C16.8039 0.860962 10.138 7.49147 10.138 15.6385C10.138 20.5311 12.5417 24.8703 16.2252 27.5601C12.9201 28.7888 9.89317 30.7148 7.3225 33.2719C2.60405 37.9763 0 44.2194 0 50.861H4.45137C4.45137 39.5924 13.6657 30.416 25.0056 30.416C36.3454 30.416 45.5598 39.5814 45.5598 50.861H50.0111C50 44.2194 47.396 37.9763 42.6775 33.2829ZM14.5894 15.6385C14.5894 9.92671 19.2633 5.28868 24.9944 5.28868C30.7367 5.28868 35.3995 9.93778 35.3995 15.6385C35.3995 21.3392 30.7256 25.9883 24.9944 25.9883C19.2633 25.9993 14.5894 21.3502 14.5894 15.6385Z" fill="#currentColor"></path> </g> <defs> <clipPath id="clip0"> <rect width="50" height="50" fill="white" transform="translate(0 0.860962)"></rect> </clipPath> </defs> </svg>